<?xml version="1.0" encoding="UTF-8"?>
<svg id="Layer_1" xmlns="http://www.w3.org/2000/svg" version="1.1" viewBox="0 0 2000 2000">
  <!-- Generator: Adobe Illustrator 30.1.0, SVG Export Plug-In . SVG Version: 2.1.1 Build 136)  -->
  <defs>
    <style>
      .st0 {
        fill: #fff;
      }
    </style>
  </defs>
  <g>
    <path class="st0" d="M424.49,1147.98h-90.19l-26.3-81.42h-175.37l-26.3,81.42H19.25l151.57-438.43h102.1l151.57,438.43h0ZM155.16,995.16h130.28l-46.98-146.56-18.16-67.02-18.17,67.02-46.98,146.56h0Z"/>
    <path class="st0" d="M614.29,911.86c-48.86,0-84.55,38.21-84.55,90.82v145.31h-80.17v-311.91h78.92v57.62c19.42-37.58,50.73-62.63,87.69-62.63h8.14v80.8h-10.03Z"/>
    <path class="st0" d="M797.39,1087.85c41.34,0,65.14-25.68,75.78-62.63l67.64,34.45c-20.04,53.24-74.53,94.58-146.56,94.58-88.94,0-158.46-60.75-158.46-162.22s69.52-162.22,158.46-162.22c77.04,0,126.52,41.34,146.56,94.57l-67.64,35.07c-10.02-37.58-34.45-63.26-75.78-63.26-43.84,0-82.05,30.06-82.05,95.83s38.21,95.83,82.05,95.83Z"/>
    <path class="st0" d="M1043.55,709.55v172.24c18.79-29.44,47.6-51.98,92.7-51.98,58.88,0,103.34,41.34,103.34,113.99v204.18h-80.17v-179.76c0-43.84-17.53-63.89-51.35-63.89-40.08,0-64.52,30.07-64.52,79.54v164.1h-80.17v-438.43h80.17Z"/>
    <path class="st0" d="M1356.73,709.55v82.68h-80.17v-82.68h80.17ZM1356.73,836.07v311.91h-80.17v-311.91h80.17Z"/>
    <path class="st0" d="M1485.88,1147.98l-106.47-311.91h85.18l46.35,153.45,22.54,78.29,21.92-78.29,45.72-153.45h83.3l-106.47,311.91h-92.07Z"/>
    <path class="st0" d="M1981.33,988.27v20.04h-226.73c3.76,48.86,35.07,80.17,81.42,80.17,33.19,0,58.87-14.4,72.65-40.71l60.12,43.84c-25.05,39.46-73.91,62.63-132.15,62.63-95.83,0-161.59-65.77-161.59-161.59s62.63-162.22,155.33-162.22,150.94,63.89,150.94,157.83h0ZM1755.23,954.45h140.92c-4.39-36.95-30.06-59.5-68.27-59.5-35.7,0-65.77,25.68-72.65,59.5Z"/>
  </g>
  <rect class="st0" x="18" y="1219.38" width="1963.33" height="71.4"/>
</svg>