<svg width="1080" height="474" viewBox="0 0 1080 474" fill="none" xmlns="http://www.w3.org/2000/svg">
<path d="M1005.8 157.3L957.5 304L906 160L905.1 157.4L856.9 157.5L934.4 363.5L901.2 446.9H951.1L1056 157.3H1005.8Z" fill="black"/>
<path d="M802.8 182.1C788.1 157.5 761.2 153.6 738.6 153.7C686.9 153.7 649.1 198.6 649.2 257.9C649.3 317.1 688.1 361.6 739.5 361.6C761.6 361.6 779.8 354.1 797.1 337.9V341.8C797.7 369 791.9 381 780.9 391.7C770.6 401.6 757.7 405.4 740.6 405.4C712.3 405.4 696.2 389.5 686.3 361.3L685 357.6L645.2 373.9L646.2 377.4C658.8 421.4 697.1 447.6 743 447.6C772.7 447.6 797.7 437.2 815.3 417.6C832.9 398 842.2 370.1 842.2 337L842 158.3H808.7L802.8 182.1ZM797.7 257.2C797.7 293.7 775.8 319.2 744.4 319.2C713.3 319.2 690.7 293.2 690.6 257.3C690.6 239.5 696 223.5 705.8 212.2C715.5 201.1 729.1 194.9 744.2 194.9C775.7 194.9 797.6 220.5 797.7 257.2Z" fill="black"/>
<path d="M590.1 182.1C575.4 157.5 548.5 153.6 525.9 153.6C474.2 153.6 436.4 198.4 436.4 257.8C436.4 317 475.2 361.6 526.7 361.6C548.8 361.6 567 354.1 584.3 338V341.9C584.9 369.1 579.1 381.1 568 391.7C557.7 401.6 544.8 405.4 527.7 405.4C499.4 405.4 483.3 389.4 473.4 361.3L472.1 357.6L432.3 373.9L433.3 377.4C445.9 421.4 484.1 447.7 530 447.7C559.7 447.7 584.7 437.3 602.4 417.8C620 398.2 629.3 370.4 629.3 337.3V158.3H596L590.1 182.1ZM584.9 257.2C584.9 293.7 563 319.2 531.6 319.2C500.5 319.2 477.9 293.1 477.9 257.2C477.9 239.4 483.3 223.4 493.2 212.1C502.9 201 516.5 194.8 531.6 194.8C563 194.8 584.9 220.5 584.9 257.2Z" fill="black"/>
<path d="M335 185.2C312.6 185.2 296.1 196.2 286.2 218.7L252.8 198.2C268.2 162.3 296.1 144.5 336.1 144.5C372.8 144.5 397.4 158.7 409.5 187.5C413.9 198.2 416.1 210.8 416.1 225.4V359.5H373.2V330.7C361.1 352.4 342 363.1 315.6 363.1C296.5 363.1 280.7 357.2 268.3 345.7C255.8 334.3 249.6 319.3 249.6 301.1V298.7C249.6 249.8 296.6 234.4 331.1 234.4H355.3C367.4 234.4 373.6 228.5 373.6 216.6C373.6 199.5 359.6 185.2 335 185.2ZM373.2 267.7H331C321.8 267.7 313 270.5 304.9 275.6C297.2 280.7 293.2 287.8 293.2 296.9C293.2 314.3 305.7 325.7 324.4 325.7C354.1 325.7 373.2 306 373.2 274.4V267.7Z" fill="black"/>
<path d="M224.6 216.3C217.8 205.3 208.9 196.6 197.9 190.3C204.6 185 208.6 178.2 213 170.1C219.1 159 222.2 146.7 222.2 133.6C222.2 108.4 216.4 88.5 201.5 74.2C186.8 60.1 166.5 53 141.1 53H43V356.7H146.3C174.3 356.7 196.7 348.4 212.9 332C229.1 315.5 237.3 292.8 237.3 264.4C237.3 246.1 233 229.9 224.6 216.3ZM85.2 218H138.3C155.4 218 168.2 221.9 176.5 229.5C184.8 237.1 188.8 248.6 188.8 264.4C188.8 280.4 184.8 291.9 176.5 299.6C168.3 307.3 155.4 311.2 138.3 311.2H85.2V218ZM165.3 162.9C158.5 169.3 148.7 172.5 136.3 172.5H85.2V98.6H136.4C148.8 98.6 158.5 101.9 165.3 108.4C172 114.8 175.3 124 175.3 135.8C175.4 147.5 172 156.6 165.3 162.9Z" fill="black"/>
</svg>
