<?xml version="1.0" encoding="utf-8"?>
<!-- Generator: Adobe Illustrator 26.0.2, SVG Export Plug-In . SVG Version: 6.00 Build 0)  -->
<svg version="1.1" id="Layer_1" xmlns="http://www.w3.org/2000/svg" xmlns:xlink="http://www.w3.org/1999/xlink" x="0px" y="0px"
	 viewBox="0 0 432 90.34" style="enable-background:new 0 0 432 90.34;" xml:space="preserve">
<g>
	<path d="M35.03,90.34C15.06,90.34,0,76.41,0,57.93s15.06-32.41,35.03-32.41c19.97,0,35.03,13.93,35.03,32.41S55,90.34,35.03,90.34z
		 M35.03,37.83c-12.27,0-20.83,8.27-20.83,20.1s8.57,20.1,20.83,20.1s20.84-8.27,20.84-20.1S47.3,37.83,35.03,37.83z"/>
	<path d="M303.06,90.34c-21.15,0-36.49-13.63-36.49-32.41c0-18.48,14.94-32.41,34.74-32.41c24.02,0,35.09,19.05,35.32,36.95h-56.75
		l0.18,0.7c2.44,9.58,11.04,15.3,23.01,15.3c8.78,0,16.42-2.73,24.69-8.83l6.62,8.61C324.03,86.39,313.78,90.34,303.06,90.34z
		 M301.3,37.25c-10.42,0-18.71,5.83-21.11,14.86l-0.19,0.7h41.41l-0.32-1.28C318.75,44.6,312.32,37.25,301.3,37.25z"/>
	<path d="M355.81,88.3V76.58h8.78c3.2,0,5.81-2.61,5.81-5.81l0-25.66c0-3.21-2.61-5.82-5.81-5.82l-8.78,0V27.57h26.6v16.37l1-1.27
		c8.94-11.38,18.36-17.14,28.01-17.14c14.22,0,20.59,9.32,20.59,18.55c0,6.38-4.56,13.93-11.1,14.55c-0.18,0.02-0.36,0.03-0.54,0.04
		c0,0-0.29,0.02-0.34,0.02h-0.15c-4.92,0-8.93-4.01-8.93-8.93c0-4.86,3.96-8.87,8.83-8.92l1.06-0.01l-0.6-0.87
		c-0.27-0.39-0.72-0.97-1.46-1.56c-1.41-1.24-3.75-1.87-6.91-1.87c-9.62,0-17.72,7.24-29.3,20.61l-0.14,0.16v13.48
		c0,3.2,2.61,5.81,5.81,5.81h12.44V88.3H355.81z"/>
	<path d="M420.48,88.63c-5.26,0-9.54-4.28-9.54-9.54c0-5.26,4.28-9.54,9.54-9.54c5.26,0,9.54,4.28,9.54,9.54
		C430.02,84.35,425.74,88.63,420.48,88.63z"/>
	<path d="M86.1,88.3V76.58h8.78c3.2,0,5.81-2.61,5.81-5.81l0-25.66c0-3.21-2.61-5.82-5.81-5.82l-8.78,0V27.57h26.6v16.37l1-1.27
		c8.94-11.38,18.36-17.14,28.01-17.14c14.22,0,20.59,9.32,20.59,18.55c0,6.38-4.56,13.93-11.1,14.55c-0.18,0.02-0.36,0.03-0.54,0.04
		c0,0-0.29,0.02-0.34,0.02h-0.15c-4.92,0-8.93-4.01-8.93-8.93c0-4.86,3.96-8.87,8.83-8.92l1.06-0.01l-0.6-0.87
		c-0.27-0.39-0.72-0.97-1.46-1.56c-1.42-1.24-3.75-1.87-6.91-1.87c-9.62,0-17.72,7.24-29.31,20.61l-0.14,0.16v13.48
		c0,3.2,2.61,5.81,5.81,5.81h11.43V88.3H86.1z"/>
	<path d="M207.33,90.34c-17.89,0-31.39-13.93-31.39-32.41s13.49-32.41,31.39-32.41c11.51,0,18.84,6.73,22.18,10.74l0.99,1.18V17.53
		c0-3.2-2.61-5.81-5.81-5.81h-9.36V0h27.18v70.77c0,3.2,2.61,5.81,5.81,5.81h3.52V88.3H230.5v-9.88l-0.99,1.18
		C226.17,83.61,218.84,90.34,207.33,90.34z M208.64,37.39c-11.42,0-19.09,8.26-19.09,20.54c0,12.29,7.67,20.54,19.09,20.54
		c11.28,0,17.12-6.5,21.76-13.53l0.09-0.14V51.06l-0.09-0.14C225.77,43.89,219.92,37.39,208.64,37.39z"/>
</g>
</svg>
